<mxfile host="65bd71144e">
    <diagram id="2h9zu1e6-vyJD9QrDd3S" name="Page-1">
        <mxGraphModel dx="659" dy="547" grid="1" gridSize="10" guides="1" tooltips="1" connect="1" arrows="1" fold="1" page="1" pageScale="1" pageWidth="850" pageHeight="1100" math="0" shadow="0">
            <root>
                <mxCell id="0"/>
                <mxCell id="1" parent="0"/>
                <mxCell id="2" value=":Interface" style="shape=umlLifeline;perimeter=lifelinePerimeter;whiteSpace=wrap;html=1;container=1;collapsible=0;recursiveResize=0;outlineConnect=0;" parent="1" vertex="1">
                    <mxGeometry x="20" y="20" width="100" height="710" as="geometry"/>
                </mxCell>
                <mxCell id="15" value="" style="html=1;points=[];perimeter=orthogonalPerimeter;" parent="2" vertex="1">
                    <mxGeometry x="45" y="53" width="10" height="57" as="geometry"/>
                </mxCell>
                <mxCell id="58" value="" style="html=1;points=[];perimeter=orthogonalPerimeter;" parent="2" vertex="1">
                    <mxGeometry x="45" y="220" width="10" height="60" as="geometry"/>
                </mxCell>
                <mxCell id="3" value=":MainAgent" style="shape=umlLifeline;perimeter=lifelinePerimeter;whiteSpace=wrap;html=1;container=1;collapsible=0;recursiveResize=0;outlineConnect=0;" parent="1" vertex="1">
                    <mxGeometry x="150" y="20" width="100" height="710" as="geometry"/>
                </mxCell>
                <mxCell id="10" value="" style="html=1;points=[];perimeter=orthogonalPerimeter;" parent="3" vertex="1">
                    <mxGeometry x="45" y="60" width="10" height="40" as="geometry"/>
                </mxCell>
                <mxCell id="22" value="" style="html=1;points=[];perimeter=orthogonalPerimeter;" parent="3" vertex="1">
                    <mxGeometry x="45" y="350" width="10" height="36" as="geometry"/>
                </mxCell>
                <mxCell id="26" value="state update" style="html=1;verticalAlign=bottom;endArrow=block;" parent="3" edge="1">
                    <mxGeometry x="-0.4892" width="80" relative="1" as="geometry">
                        <mxPoint x="55" y="356" as="sourcePoint"/>
                        <mxPoint x="309.5" y="356" as="targetPoint"/>
                        <mxPoint as="offset"/>
                    </mxGeometry>
                </mxCell>
                <mxCell id="36" value="" style="html=1;points=[];perimeter=orthogonalPerimeter;" parent="3" vertex="1">
                    <mxGeometry x="45" y="456" width="10" height="30" as="geometry"/>
                </mxCell>
                <mxCell id="42" value="" style="html=1;points=[];perimeter=orthogonalPerimeter;" parent="3" vertex="1">
                    <mxGeometry x="45" y="526" width="10" height="30" as="geometry"/>
                </mxCell>
                <mxCell id="4" value=":UserAgent" style="shape=umlLifeline;perimeter=lifelinePerimeter;whiteSpace=wrap;html=1;container=1;collapsible=0;recursiveResize=0;outlineConnect=0;" parent="1" vertex="1">
                    <mxGeometry x="280" y="80" width="100" height="650" as="geometry"/>
                </mxCell>
                <mxCell id="40" value="" style="html=1;points=[];perimeter=orthogonalPerimeter;" parent="4" vertex="1">
                    <mxGeometry x="45" y="426" width="10" height="40" as="geometry"/>
                </mxCell>
                <mxCell id="51" value="" style="html=1;points=[];perimeter=orthogonalPerimeter;" parent="4" vertex="1">
                    <mxGeometry x="-85" y="566" width="10" height="30" as="geometry"/>
                </mxCell>
                <mxCell id="53" value="" style="html=1;points=[];perimeter=orthogonalPerimeter;" parent="4" vertex="1">
                    <mxGeometry x="45" y="596" width="10" height="40" as="geometry"/>
                </mxCell>
                <mxCell id="54" value="prediction" style="html=1;verticalAlign=bottom;endArrow=block;exitX=0.998;exitY=0.995;exitDx=0;exitDy=0;exitPerimeter=0;entryX=-0.002;entryY=-0.001;entryDx=0;entryDy=0;entryPerimeter=0;" parent="4" source="51" target="53" edge="1">
                    <mxGeometry x="-0.083" width="80" relative="1" as="geometry">
                        <mxPoint x="190.03999999999996" y="615.8000000000001" as="sourcePoint"/>
                        <mxPoint x="-20" y="606" as="targetPoint"/>
                        <mxPoint as="offset"/>
                    </mxGeometry>
                </mxCell>
                <mxCell id="61" value="" style="html=1;points=[];perimeter=orthogonalPerimeter;" parent="4" vertex="1">
                    <mxGeometry x="45" y="164" width="10" height="46" as="geometry"/>
                </mxCell>
                <mxCell id="5" value="2:DeviceAgent" style="shape=umlLifeline;perimeter=lifelinePerimeter;whiteSpace=wrap;html=1;container=1;collapsible=0;recursiveResize=0;outlineConnect=0;" parent="1" vertex="1">
                    <mxGeometry x="410" y="157" width="100" height="573" as="geometry"/>
                </mxCell>
                <mxCell id="28" value="" style="html=1;points=[];perimeter=orthogonalPerimeter;" parent="5" vertex="1">
                    <mxGeometry x="45" y="259" width="10" height="60" as="geometry"/>
                </mxCell>
                <mxCell id="67" value="" style="endArrow=classic;html=1;entryX=1.002;entryY=0.002;entryDx=0;entryDy=0;entryPerimeter=0;exitX=0.501;exitY=0.382;exitDx=0;exitDy=0;exitPerimeter=0;" parent="5" source="5" target="28" edge="1">
                    <mxGeometry width="50" height="50" relative="1" as="geometry">
                        <mxPoint y="263" as="sourcePoint"/>
                        <mxPoint x="50" y="213" as="targetPoint"/>
                        <Array as="points">
                            <mxPoint x="80" y="219"/>
                            <mxPoint x="80" y="259"/>
                        </Array>
                    </mxGeometry>
                </mxCell>
                <mxCell id="11" value="new user agent" style="html=1;verticalAlign=bottom;startArrow=none;startFill=0;endArrow=block;startSize=8;entryX=0;entryY=-0.004;entryDx=0;entryDy=0;entryPerimeter=0;exitX=0.947;exitY=0.126;exitDx=0;exitDy=0;exitPerimeter=0;" parent="1" source="15" target="10" edge="1">
                    <mxGeometry width="60" relative="1" as="geometry">
                        <mxPoint x="90" y="80" as="sourcePoint"/>
                        <mxPoint x="140" y="80" as="targetPoint"/>
                    </mxGeometry>
                </mxCell>
                <mxCell id="12" value="&amp;lt;&amp;lt;create&amp;gt;&amp;gt;" style="html=1;verticalAlign=bottom;endArrow=block;exitX=0.991;exitY=0.495;exitDx=0;exitDy=0;exitPerimeter=0;entryX=-0.002;entryY=0.031;entryDx=0;entryDy=0;entryPerimeter=0;" parent="1" source="10" target="4" edge="1">
                    <mxGeometry width="80" relative="1" as="geometry">
                        <mxPoint x="210" y="100" as="sourcePoint"/>
                        <mxPoint x="270" y="100" as="targetPoint"/>
                    </mxGeometry>
                </mxCell>
                <mxCell id="13" value="success" style="html=1;verticalAlign=bottom;endArrow=open;dashed=1;endSize=8;exitX=0.001;exitY=0.997;exitDx=0;exitDy=0;exitPerimeter=0;entryX=0.99;entryY=0.83;entryDx=0;entryDy=0;entryPerimeter=0;" parent="1" source="10" target="15" edge="1">
                    <mxGeometry relative="1" as="geometry">
                        <mxPoint x="190" y="120" as="sourcePoint"/>
                        <mxPoint x="80" y="120" as="targetPoint"/>
                    </mxGeometry>
                </mxCell>
                <mxCell id="16" value="" style="html=1;points=[];perimeter=orthogonalPerimeter;" parent="1" vertex="1">
                    <mxGeometry x="65" y="150" width="10" height="57" as="geometry"/>
                </mxCell>
                <mxCell id="17" value="" style="html=1;points=[];perimeter=orthogonalPerimeter;" parent="1" vertex="1">
                    <mxGeometry x="195" y="157" width="10" height="40" as="geometry"/>
                </mxCell>
                <mxCell id="18" value="new device agent" style="html=1;verticalAlign=bottom;startArrow=none;startFill=0;endArrow=block;startSize=8;entryX=0;entryY=-0.004;entryDx=0;entryDy=0;entryPerimeter=0;exitX=0.947;exitY=0.126;exitDx=0;exitDy=0;exitPerimeter=0;" parent="1" source="16" target="17" edge="1">
                    <mxGeometry width="60" relative="1" as="geometry">
                        <mxPoint x="90" y="157" as="sourcePoint"/>
                        <mxPoint x="140" y="157" as="targetPoint"/>
                    </mxGeometry>
                </mxCell>
                <mxCell id="19" value="&amp;lt;&amp;lt;create&amp;gt;&amp;gt;" style="html=1;verticalAlign=bottom;endArrow=block;exitX=0.991;exitY=0.495;exitDx=0;exitDy=0;exitPerimeter=0;entryX=-0.008;entryY=0.033;entryDx=0;entryDy=0;entryPerimeter=0;" parent="1" source="17" target="5" edge="1">
                    <mxGeometry x="-0.3628" width="80" relative="1" as="geometry">
                        <mxPoint x="210" y="177" as="sourcePoint"/>
                        <mxPoint x="409" y="173" as="targetPoint"/>
                        <mxPoint as="offset"/>
                    </mxGeometry>
                </mxCell>
                <mxCell id="20" value="success" style="html=1;verticalAlign=bottom;endArrow=open;dashed=1;endSize=8;exitX=0.001;exitY=0.997;exitDx=0;exitDy=0;exitPerimeter=0;entryX=0.99;entryY=0.83;entryDx=0;entryDy=0;entryPerimeter=0;" parent="1" source="17" target="16" edge="1">
                    <mxGeometry relative="1" as="geometry">
                        <mxPoint x="190" y="197" as="sourcePoint"/>
                        <mxPoint x="80" y="197" as="targetPoint"/>
                    </mxGeometry>
                </mxCell>
                <mxCell id="23" value="state update" style="html=1;verticalAlign=bottom;endArrow=block;entryX=0.014;entryY=0.001;entryDx=0;entryDy=0;entryPerimeter=0;" parent="1" target="22" edge="1">
                    <mxGeometry width="80" relative="1" as="geometry">
                        <mxPoint x="69.66666666666652" y="370.03600000000006" as="sourcePoint"/>
                        <mxPoint x="140" y="366" as="targetPoint"/>
                    </mxGeometry>
                </mxCell>
                <mxCell id="25" value="1:DeviceAgent" style="shape=umlLifeline;perimeter=lifelinePerimeter;whiteSpace=wrap;html=1;container=1;collapsible=0;recursiveResize=0;outlineConnect=0;" parent="1" vertex="1">
                    <mxGeometry x="520" y="20" width="100" height="710" as="geometry"/>
                </mxCell>
                <mxCell id="29" value="" style="html=1;points=[];perimeter=orthogonalPerimeter;" parent="25" vertex="1">
                    <mxGeometry x="45" y="566" width="10" height="60" as="geometry"/>
                </mxCell>
                <mxCell id="68" value="" style="endArrow=classic;html=1;entryX=1.005;entryY=-0.008;entryDx=0;entryDy=0;entryPerimeter=0;exitX=0.501;exitY=0.532;exitDx=0;exitDy=0;exitPerimeter=0;" parent="25" source="25" target="29" edge="1">
                    <mxGeometry width="50" height="50" relative="1" as="geometry">
                        <mxPoint x="54.999999999999886" y="379.996" as="sourcePoint"/>
                        <mxPoint x="59.91999999999996" y="420.23" as="targetPoint"/>
                        <Array as="points">
                            <mxPoint x="90" y="378"/>
                            <mxPoint x="90" y="566"/>
                        </Array>
                    </mxGeometry>
                </mxCell>
                <mxCell id="27" value="state update" style="html=1;verticalAlign=bottom;endArrow=block;exitX=1.047;exitY=0.767;exitDx=0;exitDy=0;exitPerimeter=0;" parent="1" source="22" edge="1">
                    <mxGeometry x="-0.6455" width="80" relative="1" as="geometry">
                        <mxPoint x="220" y="396" as="sourcePoint"/>
                        <mxPoint x="569.5" y="397.61199999999985" as="targetPoint"/>
                        <mxPoint as="offset"/>
                    </mxGeometry>
                </mxCell>
                <mxCell id="31" value="prediction" style="html=1;verticalAlign=bottom;endArrow=block;exitX=0.004;exitY=0.995;exitDx=0;exitDy=0;exitPerimeter=0;" parent="1" source="28" target="36" edge="1">
                    <mxGeometry x="-0.5597" width="80" relative="1" as="geometry">
                        <mxPoint x="345" y="456" as="sourcePoint"/>
                        <mxPoint x="360" y="476" as="targetPoint"/>
                        <mxPoint as="offset"/>
                    </mxGeometry>
                </mxCell>
                <mxCell id="39" value="prediction" style="html=1;verticalAlign=bottom;endArrow=block;exitX=0.998;exitY=0.995;exitDx=0;exitDy=0;exitPerimeter=0;entryX=-0.002;entryY=-0.001;entryDx=0;entryDy=0;entryPerimeter=0;" parent="1" source="36" target="40" edge="1">
                    <mxGeometry x="-0.083" width="80" relative="1" as="geometry">
                        <mxPoint x="470.03999999999996" y="525.8000000000001" as="sourcePoint"/>
                        <mxPoint x="260" y="516" as="targetPoint"/>
                        <mxPoint as="offset"/>
                    </mxGeometry>
                </mxCell>
                <mxCell id="41" value="action" style="html=1;verticalAlign=bottom;endArrow=block;exitX=-0.005;exitY=1;exitDx=0;exitDy=0;exitPerimeter=0;entryX=1.21;entryY=0.004;entryDx=0;entryDy=0;entryPerimeter=0;" parent="1" source="40" target="42" edge="1">
                    <mxGeometry width="80" relative="1" as="geometry">
                        <mxPoint x="210" y="556" as="sourcePoint"/>
                        <mxPoint x="270" y="566" as="targetPoint"/>
                    </mxGeometry>
                </mxCell>
                <mxCell id="43" value="action" style="html=1;verticalAlign=bottom;endArrow=block;exitX=-0.001;exitY=0.999;exitDx=0;exitDy=0;exitPerimeter=0;" parent="1" source="42" edge="1">
                    <mxGeometry width="80" relative="1" as="geometry">
                        <mxPoint x="27.84999999999991" y="546" as="sourcePoint"/>
                        <mxPoint x="69.66666666666652" y="575.97" as="targetPoint"/>
                    </mxGeometry>
                </mxCell>
                <mxCell id="57" value="prediction" style="html=1;verticalAlign=bottom;endArrow=block;exitX=-0.002;exitY=1.003;exitDx=0;exitDy=0;exitPerimeter=0;entryX=0.996;entryY=0;entryDx=0;entryDy=0;entryPerimeter=0;" parent="1" source="29" target="51" edge="1">
                    <mxGeometry x="-0.6927" y="-1" width="80" relative="1" as="geometry">
                        <mxPoint x="490.03999999999996" y="646" as="sourcePoint"/>
                        <mxPoint x="240" y="646.3" as="targetPoint"/>
                        <mxPoint as="offset"/>
                    </mxGeometry>
                </mxCell>
                <mxCell id="59" value="set device filter(2)" style="html=1;verticalAlign=bottom;endArrow=block;exitX=1.043;exitY=0.08;exitDx=0;exitDy=0;exitPerimeter=0;entryX=-0.001;entryY=0;entryDx=0;entryDy=0;entryPerimeter=0;" parent="1" source="58" target="61" edge="1">
                    <mxGeometry x="-0.5627" width="80" relative="1" as="geometry">
                        <mxPoint x="115" y="250" as="sourcePoint"/>
                        <mxPoint x="190" y="244.8" as="targetPoint"/>
                        <mxPoint as="offset"/>
                    </mxGeometry>
                </mxCell>
                <mxCell id="62" value="success" style="html=1;verticalAlign=bottom;endArrow=open;dashed=1;endSize=8;exitX=-0.006;exitY=0.995;exitDx=0;exitDy=0;exitPerimeter=0;entryX=1.194;entryY=0.849;entryDx=0;entryDy=0;entryPerimeter=0;" parent="1" source="61" target="58" edge="1">
                    <mxGeometry x="-0.4763" y="1" relative="1" as="geometry">
                        <mxPoint x="320" y="284" as="sourcePoint"/>
                        <mxPoint x="120" y="280" as="targetPoint"/>
                        <mxPoint as="offset"/>
                    </mxGeometry>
                </mxCell>
                <mxCell id="63" value="prediction filtered" style="text;html=1;strokeColor=none;fillColor=none;align=center;verticalAlign=middle;whiteSpace=wrap;rounded=0;" parent="1" vertex="1">
                    <mxGeometry x="340" y="510" width="60" height="30" as="geometry"/>
                </mxCell>
                <mxCell id="64" value="No filter set for device 1" style="text;html=1;strokeColor=none;fillColor=none;align=center;verticalAlign=middle;whiteSpace=wrap;rounded=0;" parent="1" vertex="1">
                    <mxGeometry x="340" y="680" width="60" height="30" as="geometry"/>
                </mxCell>
                <mxCell id="66" value="Varianta pro periodickou predikci a Varianta pro predikce při updatu stavu" style="text;html=1;align=center;verticalAlign=middle;resizable=0;points=[];autosize=1;strokeColor=none;fillColor=none;" parent="1" vertex="1">
                    <mxGeometry x="650" y="490" width="410" height="30" as="geometry"/>
                </mxCell>
            </root>
        </mxGraphModel>
    </diagram>
</mxfile>